# xmcd
#
# Track frame offsets: 
#        150
#        10287
#        22697
#        36727
#        53307
#        68182
#        79062
#        91310
#        95790
#        115665
#        128037
#        145395
#        159085
#        170027
#        181460
#        194565
#
# Disc length: 2739 seconds
#
# Revision: 0
# Processed by: cddbd v1.4PL0 Copyright (c) Steve Scherf et al.
# Submitted via: ExactAudioCopy v0.90b4
#
DISCID=d20ab110
DTITLE=Speed 78 - Skiffle
DYEAR=1998
DGENRE=Blues
TTITLE0=Make Believe Stories
TTITLE1=Stay On The Right Side
TTITLE2=Maureen
TTITLE3=Change Your Mind
TTITLE4=Turnaround
TTITLE5=Devil Blues
TTITLE6=You're Making Me Jealous
TTITLE7=High Folks
TTITLE8=Black Trace Blues
TTITLE9=I'll Never Be The Same
TTITLE10=Eyes Of Long Ago
TTITLE11=Barbop
TTITLE12=I'll See You In My Dreams
TTITLE13=I'm Wondering Who
TTITLE14=Ma Foi
TTITLE15=After You've Gone
EXTD=
EXTT0=
EXTT1=
EXTT2=
EXTT3=
EXTT4=
EXTT5=
EXTT6=
EXTT7=
EXTT8=
EXTT9=
EXTT10=
EXTT11=
EXTT12=
EXTT13=
EXTT14=
EXTT15=
PLAYORDER=
